<?xml version="1.0" encoding="utf-8"?>
<!-- Generator: Adobe Illustrator 16.0.0, SVG Export Plug-In . SVG Version: 6.00 Build 0)  -->
<!DOCTYPE svg PUBLIC "-//W3C//DTD SVG 1.1//EN" "http://www.w3.org/Graphics/SVG/1.1/DTD/svg11.dtd">
<svg version="1.1" id="Your_Icon" xmlns="http://www.w3.org/2000/svg" xmlns:xlink="http://www.w3.org/1999/xlink" x="0px" y="0px"
	 width="100px" height="100px" viewBox="0 0 100 100" enable-background="new 0 0 100 100" xml:space="preserve">
<g>
	<path d="M20.704,50.925H81.89c1.188,0,2.146,0.958,2.146,2.146s-0.959,2.146-2.146,2.146H53.446v18.235l4.579-4.578
		c0.837-0.837,2.196-0.837,3.033,0c0.422,0.415,0.63,0.966,0.63,1.517c0,0.552-0.208,1.095-0.63,1.517l-8.241,8.241
		c-0.2,0.201-0.43,0.358-0.694,0.466c-0.064,0.028-0.137,0.05-0.2,0.071c-0.071,0.021-0.15,0.043-0.229,0.058
		c-0.129,0.021-0.258,0.035-0.394,0.035c-0.129,0-0.25-0.007-0.372-0.036c-0.086-0.014-0.172-0.029-0.25-0.057
		c-0.137-0.036-0.265-0.093-0.387-0.157c-0.186-0.101-0.358-0.229-0.508-0.38l-8.249-8.241c-0.837-0.837-0.837-2.196,0-3.033
		c0.845-0.837,2.196-0.837,3.04,0l4.579,4.578V55.217h-28.45c-1.18,0-2.146-0.959-2.146-2.146
		C18.558,51.885,19.523,50.925,20.704,50.925z"/>
</g>
<g>
	<g>
		<path d="M51.301,14.111c0.137,0,0.265,0.015,0.394,0.036c0.107,0.021,0.215,0.05,0.314,0.086c0.064,0.021,0.129,0.05,0.187,0.079
			c0.156,0.071,0.307,0.164,0.443,0.271c0.014,0.008,0.021,0.015,0.035,0.029c0.051,0.043,0.101,0.086,0.144,0.129l8.241,8.241
			c0.422,0.422,0.63,0.972,0.63,1.517c0,0.55-0.208,1.101-0.63,1.517c-0.837,0.844-2.196,0.844-3.033,0l-4.579-4.579V39.68H81.89
			c1.188,0,2.146,0.958,2.146,2.146c0,1.181-0.959,2.146-2.146,2.146H20.704c-1.18,0-2.146-0.966-2.146-2.146
			c0-1.188,0.966-2.146,2.146-2.146h28.45V21.438l-4.579,4.579c-0.844,0.844-2.196,0.844-3.04,0c-0.837-0.838-0.837-2.197,0-3.033
			l8.249-8.242c0.043-0.043,0.093-0.086,0.143-0.129c0.014-0.014,0.021-0.021,0.036-0.029c0.057-0.043,0.114-0.086,0.179-0.121
			c0.043-0.035,0.078-0.057,0.121-0.078c0.064-0.037,0.136-0.072,0.2-0.101c0.15-0.064,0.308-0.114,0.465-0.136
			c0.058-0.007,0.122-0.021,0.187-0.028C51.172,14.111,51.236,14.111,51.301,14.111z"/>
	</g>
</g>
</svg>
